<svg id="calendar" xmlns="http://www.w3.org/2000/svg" width="18.734" height="18.734" viewBox="0 0 18.734 18.734">
  <g id="Group_768" data-name="Group 768">
    <path id="Path_1788" data-name="Path 1788" d="M324.637,320.1a4.539,4.539,0,0,0-4.537-4.537c-.1,0-.2,0-.293.01a4.537,4.537,0,0,0-4.215,4.015,4.512,4.512,0,0,0,.071,1.464,4.537,4.537,0,0,0,8.974-.951Zm-4.537,3a3,3,0,1,1,3-3A3,3,0,0,1,320.1,323.1Z" transform="translate(-305.903 -305.902)" fill="#26265d"/>
    <path id="Path_1789" data-name="Path 1789" d="M399.479,396.844h-1.025v1.61h-1.61v1.025h2.635v-1.025h0Z" transform="translate(-384.696 -384.696)" fill="#26265d"/>
    <path id="Path_1790" data-name="Path 1790" d="M93.747,0a.513.513,0,0,0-.512.512V2.927a.513.513,0,0,0,.512.512h.439a.513.513,0,0,0,.512-.512V.512A.513.513,0,0,0,94.186,0Z" transform="translate(-90.381)" fill="#26265d"/>
    <path id="Path_1791" data-name="Path 1791" d="M356.716,0a.513.513,0,0,0-.512.512V2.927a.513.513,0,0,0,.512.512h.439a.513.513,0,0,0,.512-.512V.512A.513.513,0,0,0,357.155,0Z" transform="translate(-345.3)" fill="#26265d"/>
    <path id="Path_1792" data-name="Path 1792" d="M1.171,68.449H8.416a5.562,5.562,0,0,1-.109-1.1c0-.123.005-.245.013-.366H2.2a.878.878,0,0,1-.878-.878V59.082H13.9V61.8q.145-.007.293-.008a5.563,5.563,0,0,1,1.025.1V56.155a1.171,1.171,0,0,0-1.171-1.171H13.1v1.244a1.245,1.245,0,0,1-1.244,1.244h-.439a1.245,1.245,0,0,1-1.244-1.244V54.984H5.049v1.244a1.245,1.245,0,0,1-1.244,1.244H3.366a1.245,1.245,0,0,1-1.244-1.244V54.984H1.171A1.171,1.171,0,0,0,0,56.155V67.278A1.171,1.171,0,0,0,1.171,68.449Z" transform="translate(0 -53.301)" fill="#26265d"/>
  </g>
</svg>
