<svg xmlns="http://www.w3.org/2000/svg" width="15.115" height="18.556" viewBox="0 0 15.115 18.556">
  <g id="delete" transform="translate(-47.9 0.1)">
    <g id="Path_1795" data-name="Path 1795" fill="#26265d">
      <path d="M 59.81294631958008 18.40644264221191 L 51.10166549682617 18.40644264221191 C 50.15480422973633 18.40644264221191 49.37782669067383 17.66556358337402 49.33278656005859 16.71976280212402 L 48.83946228027344 6.360032558441162 L 48.57363510131836 6.360032558441162 C 48.22975540161133 6.360032558441162 47.94999694824219 6.080272674560547 47.94999694824219 5.736392498016357 L 47.94999694824219 3.728652715682983 C 47.94999694824219 2.910312652587891 48.61575698852539 2.244552612304688 49.43409729003906 2.244552612304688 L 52.53911590576172 2.244552612304688 L 52.53911590576172 1.72091269493103 C 52.53911590576172 0.7444326281547546 53.33354568481445 -0.04999734461307526 54.31002426147461 -0.04999734461307526 L 56.60458755493164 -0.04999734461307526 C 57.5810661315918 -0.04999734461307526 58.37549591064453 0.7444326281547546 58.37549591064453 1.72091269493103 L 58.37549591064453 2.244552612304688 L 61.48051452636719 2.244552612304688 C 62.29885482788086 2.244552612304688 62.96461486816406 2.910312652587891 62.96461486816406 3.728652715682983 L 62.96461486816406 5.736392498016357 C 62.96461486816406 6.080272674560547 62.68485641479492 6.360032558441162 62.34097671508789 6.360032558441162 L 62.07514953613281 6.360032558441162 L 61.58183670043945 16.71976280212402 C 61.53682708740234 17.66556358337402 60.75983428955078 18.40644264221191 59.81294631958008 18.40644264221191 Z M 50.08813858032227 6.360032558441162 L 50.57864761352539 16.66043281555176 C 50.59193420410156 16.94010353088379 50.82167434692383 17.15917205810547 51.10166549682617 17.15917205810547 L 59.81294631958008 17.15917205810547 C 60.0929069519043 17.15917205810547 60.32264709472656 16.94010353088379 60.33596420288086 16.66043281555176 L 60.82647323608398 6.360032558441162 L 50.08813858032227 6.360032558441162 Z M 49.1972770690918 5.112752437591553 L 61.71733474731445 5.112752437591553 L 61.71733474731445 3.728652715682983 C 61.71733474731445 3.59807276725769 61.6110954284668 3.491832733154297 61.48051452636719 3.491832733154297 L 49.43409729003906 3.491832733154297 C 49.30351638793945 3.491832733154297 49.1972770690918 3.59807276725769 49.1972770690918 3.728652715682983 L 49.1972770690918 5.112752437591553 Z M 53.78638458251953 2.244552612304688 L 57.12822723388672 2.244552612304688 L 57.12822723388672 1.72091269493103 C 57.12822723388672 1.432182669639587 56.89332580566406 1.197282671928406 56.60458755493164 1.197282671928406 L 54.31002426147461 1.197282671928406 C 54.02128601074219 1.197282671928406 53.78638458251953 1.432182669639587 53.78638458251953 1.72091269493103 L 53.78638458251953 2.244552612304688 Z" stroke="none"/>
      <path d="M 54.31002426147461 1.9073486328125e-06 C 53.36112594604492 1.9073486328125e-06 52.58911514282227 0.7720127105712891 52.58911514282227 1.720912933349609 L 52.58911514282227 2.294551849365234 L 49.43409729003906 2.294551849365234 C 48.64333724975586 2.294551849365234 47.99999618530273 2.937892913818359 47.99999618530273 3.728652954101563 L 47.99999618530273 5.736392974853516 C 47.99999618530273 6.053182601928711 48.2568473815918 6.310032844543457 48.57363510131836 6.310032844543457 L 48.88713455200195 6.310032844543457 L 49.38271713256836 16.71738243103027 C 49.42649459838867 17.6364917755127 50.18155670166016 18.35644340515137 51.10166549682617 18.35644340515137 L 59.81294631958008 18.35644340515137 C 60.73309707641602 18.35644340515137 61.48815536499023 17.6364917755127 61.53188705444336 16.71738243103027 L 62.0274772644043 6.310032844543457 L 62.34097671508789 6.310032844543457 C 62.65776443481445 6.310032844543457 62.91461563110352 6.053182601928711 62.91461563110352 5.736392974853516 L 62.91461563110352 3.728652954101563 C 62.91461563110352 2.937892913818359 62.27126693725586 2.294551849365234 61.48051452636719 2.294551849365234 L 58.32549667358398 2.294551849365234 L 58.32549667358398 1.720912933349609 C 58.32549667358398 0.7720127105712891 57.55348587036133 1.9073486328125e-06 56.60458755493164 1.9073486328125e-06 L 54.31002426147461 1.9073486328125e-06 M 57.17822647094727 2.294551849365234 L 53.73638534545898 2.294551849365234 L 53.73638534545898 1.720912933349609 C 53.73638534545898 1.404623031616211 53.99373626708984 1.147272109985352 54.31002426147461 1.147272109985352 L 56.60458755493164 1.147272109985352 C 56.92087554931641 1.147272109985352 57.17822647094727 1.404623031616211 57.17822647094727 1.720912933349609 L 57.17822647094727 2.294551849365234 M 61.76733779907227 5.162753105163574 C 61.59054565429688 5.162753105163574 49.87984466552734 5.162753105163574 49.14727401733398 5.162753105163574 L 49.14727401733398 3.728652954101563 C 49.14727401733398 3.570512771606445 49.27595520019531 3.441832542419434 49.43409729003906 3.441832542419434 L 61.48051452636719 3.441832542419434 C 61.63865661621094 3.441832542419434 61.76733779907227 3.570512771606445 61.76733779907227 3.728652954101563 L 61.76733779907227 5.162753105163574 M 50.03570556640625 6.310032844543457 L 60.87890625 6.310032844543457 L 60.38590621948242 16.66281318664551 C 60.37131500244141 16.96917343139648 60.11962509155273 17.20916366577148 59.81294631958008 17.20916366577148 L 51.10166549682617 17.20916366577148 C 50.79494476318359 17.20916366577148 50.54326629638672 16.96917343139648 50.52870559692383 16.66281318664551 L 50.03570556640625 6.310032844543457 M 54.31002426147461 -0.09999656677246094 L 56.60458755493164 -0.09999656677246094 C 57.60863494873047 -0.09999656677246094 58.42549514770508 0.7168617248535156 58.42549514770508 1.720912933349609 L 58.42549514770508 2.194553375244141 L 61.48051452636719 2.194553375244141 C 62.3264274597168 2.194553375244141 63.01461410522461 2.882742881774902 63.01461410522461 3.728652954101563 L 63.01461410522461 5.736392974853516 C 63.01461410522461 6.107842445373535 62.71242523193359 6.410032272338867 62.34097671508789 6.410032272338867 L 62.12282943725586 6.410032272338867 L 61.63177490234375 16.72214317321777 C 61.58550643920898 17.69464302062988 60.78657531738281 18.45644187927246 59.81294631958008 18.45644187927246 L 51.10166549682617 18.45644187927246 C 50.12807464599609 18.45644187927246 49.32915496826172 17.69464302062988 49.2828254699707 16.72214317321777 L 48.79178237915039 6.410032272338867 L 48.57363510131836 6.410032272338867 C 48.20218658447266 6.410032272338867 47.89999771118164 6.107842445373535 47.89999771118164 5.736392974853516 L 47.89999771118164 3.728652954101563 C 47.89999771118164 2.882742881774902 48.58818435668945 2.194553375244141 49.43409729003906 2.194553375244141 L 52.48911666870117 2.194553375244141 L 52.48911666870117 1.720912933349609 C 52.48911666870117 0.7168617248535156 53.30597686767578 -0.09999656677246094 54.31002426147461 -0.09999656677246094 Z M 57.07822418212891 2.194553375244141 L 57.07822418212891 1.720912933349609 C 57.07822418212891 1.459743499755859 56.86575698852539 1.247272491455078 56.60458755493164 1.247272491455078 L 54.31002426147461 1.247272491455078 C 54.04885482788086 1.247272491455078 53.83638763427734 1.459743499755859 53.83638763427734 1.720912933349609 L 53.83638763427734 2.194553375244141 L 57.07822418212891 2.194553375244141 Z M 61.66733551025391 5.062752723693848 L 61.66733551025391 3.728652954101563 C 61.66733551025391 3.625642776489258 61.58352661132813 3.54183292388916 61.48051452636719 3.54183292388916 L 49.43409729003906 3.54183292388916 C 49.33108520507813 3.54183292388916 49.24727630615234 3.625642776489258 49.24727630615234 3.728652954101563 L 49.24727630615234 5.062752723693848 L 61.66733551025391 5.062752723693848 Z M 60.77402877807617 6.410032272338867 L 50.14058303833008 6.410032272338867 L 50.62859725952148 16.65805244445801 C 50.64061737060547 16.91101264953613 50.84841537475586 17.10916328430176 51.10166549682617 17.10916328430176 L 59.81294631958008 17.10916328430176 C 60.06617736816406 17.10916328430176 60.27397537231445 16.91101264953613 60.28601455688477 16.65805244445801 L 60.77402877807617 6.410032272338867 Z" stroke="none" fill="#26265d"/>
    </g>
    <path id="Path_1796" data-name="Path 1796" d="M240.574,216.6a.574.574,0,0,0,.574-.574v-7.457a.574.574,0,0,0-1.147,0v7.457A.574.574,0,0,0,240.574,216.6Z" transform="translate(-185.116 -200.543)" fill="#26265d"/>
    <path id="Path_1797" data-name="Path 1797" d="M320.574,216.6a.574.574,0,0,0,.574-.574v-7.457a.574.574,0,1,0-1.147,0v7.457A.574.574,0,0,0,320.574,216.6Z" transform="translate(-262.248 -200.543)" fill="#26265d"/>
    <path id="Path_1798" data-name="Path 1798" d="M160.574,216.6a.574.574,0,0,0,.574-.574v-7.457a.574.574,0,1,0-1.147,0v7.457A.574.574,0,0,0,160.574,216.6Z" transform="translate(-107.985 -200.543)" fill="#26265d"/>
  </g>
</svg>
