<svg xmlns="http://www.w3.org/2000/svg" xmlns:xlink="http://www.w3.org/1999/xlink" width="50" height="50" viewBox="0 0 50 50">
  <defs>
    <linearGradient id="linear-gradient" x1="0.5" x2="0.5" y2="1" gradientUnits="objectBoundingBox">
      <stop offset="0" stop-color="#db00ad"/>
      <stop offset="0.528" stop-color="#ff4900"/>
      <stop offset="1" stop-color="#ffc100"/>
    </linearGradient>
  </defs>
  <g id="instagram" transform="translate(-0.483 0.393)">
    <circle id="Ellipse_59" data-name="Ellipse 59" cx="25" cy="25" r="25" transform="translate(0.483 -0.393)" fill="url(#linear-gradient)"/>
    <g id="instagram_1_" data-name="instagram (1)" transform="translate(15.347 14.469)">
      <path id="Path_1779" data-name="Path 1779" d="M20.212,5.957A7.442,7.442,0,0,0,19.741,3.5a4.968,4.968,0,0,0-1.169-1.8,4.969,4.969,0,0,0-1.8-1.169A7.44,7.44,0,0,0,14.316.061C13.235.012,12.889,0,10.136,0s-3.1.012-4.179.061A7.443,7.443,0,0,0,3.5.532,4.968,4.968,0,0,0,1.7,1.7,4.969,4.969,0,0,0,.532,3.5,7.441,7.441,0,0,0,.061,5.957C.012,7.038,0,7.383,0,10.136s.012,3.1.061,4.179a7.44,7.44,0,0,0,.471,2.461,4.967,4.967,0,0,0,1.169,1.8A4.967,4.967,0,0,0,3.5,19.74a7.438,7.438,0,0,0,2.461.471c1.081.049,1.426.061,4.179.061s3.1-.012,4.179-.061a7.439,7.439,0,0,0,2.461-.471,5.182,5.182,0,0,0,2.964-2.964,7.439,7.439,0,0,0,.471-2.461c.049-1.081.061-1.426.061-4.179s-.012-3.1-.061-4.179Zm-1.825,8.275a5.608,5.608,0,0,1-.349,1.882,3.357,3.357,0,0,1-1.924,1.924,5.608,5.608,0,0,1-1.882.349c-1.069.049-1.389.059-4.1.059s-3.027-.01-4.1-.059a5.61,5.61,0,0,1-1.882-.349,3.141,3.141,0,0,1-1.165-.758,3.14,3.14,0,0,1-.758-1.165,5.608,5.608,0,0,1-.349-1.882c-.049-1.069-.059-1.389-.059-4.1s.01-3.027.059-4.1a5.612,5.612,0,0,1,.349-1.882,3.143,3.143,0,0,1,.758-1.166,3.138,3.138,0,0,1,1.166-.758A5.607,5.607,0,0,1,6.04,1.885c1.069-.049,1.389-.059,4.1-.059h0c2.707,0,3.027.01,4.1.059a5.609,5.609,0,0,1,1.882.349,3.143,3.143,0,0,1,1.165.758,3.138,3.138,0,0,1,.758,1.166,5.6,5.6,0,0,1,.349,1.882c.049,1.069.059,1.389.059,4.1s-.01,3.027-.059,4.1Zm0,0" transform="translate(0 0)" fill="#fff"/>
      <path id="Path_1780" data-name="Path 1780" d="M129.744,124.539a5.205,5.205,0,1,0,5.205,5.205A5.205,5.205,0,0,0,129.744,124.539Zm0,8.584a3.379,3.379,0,1,1,3.379-3.379A3.379,3.379,0,0,1,129.744,133.123Zm0,0" transform="translate(-119.608 -119.608)" fill="#fff"/>
      <path id="Path_1781" data-name="Path 1781" d="M364.362,89.842a1.216,1.216,0,1,1-1.216-1.216A1.216,1.216,0,0,1,364.362,89.842Zm0,0" transform="translate(-347.599 -85.116)" fill="#fff"/>
    </g>
  </g>
</svg>
