<svg xmlns="http://www.w3.org/2000/svg" width="50" height="50" viewBox="0 0 50 50">
  <g id="twitter" transform="translate(2.517 0.393)">
    <circle id="Ellipse_59" data-name="Ellipse 59" cx="25" cy="25" r="25" transform="translate(-2.517 -0.393)" fill="#03a9f4"/>
    <g id="twitter_2_" data-name="twitter (2)" transform="translate(9.076 -34.286)">
      <g id="Group_737" data-name="Group 737" transform="translate(0 48)">
        <path id="Path_1775" data-name="Path 1775" d="M26.815,50.579a11.461,11.461,0,0,1-3.168.868,5.466,5.466,0,0,0,2.418-3.038A10.986,10.986,0,0,1,22.58,49.74,5.5,5.5,0,0,0,13.071,53.5a5.66,5.66,0,0,0,.127,1.254A15.56,15.56,0,0,1,1.867,49a5.5,5.5,0,0,0,1.689,7.347,5.429,5.429,0,0,1-2.484-.677v.06a5.523,5.523,0,0,0,4.4,5.4,5.486,5.486,0,0,1-1.441.181,4.861,4.861,0,0,1-1.041-.094,5.55,5.55,0,0,0,5.137,3.829A11.046,11.046,0,0,1,1.316,67.4,10.3,10.3,0,0,1,0,67.32a15.476,15.476,0,0,0,8.433,2.467A15.539,15.539,0,0,0,24.08,54.144c0-.243-.008-.478-.02-.711A10.967,10.967,0,0,0,26.815,50.579Z" transform="translate(0 -48)" fill="#fff"/>
      </g>
    </g>
  </g>
</svg>
